<?xml version="1.0" standalone="no"?><!DOCTYPE svg PUBLIC "-//W3C//DTD SVG 1.1//EN" "http://www.w3.org/Graphics/SVG/1.1/DTD/svg11.dtd"><svg t="1545481390967" class="icon" style="" viewBox="0 0 1024 1024" version="1.1" xmlns="http://www.w3.org/2000/svg" p-id="6898" xmlns:xlink="http://www.w3.org/1999/xlink" width="200" height="200"><defs><style type="text/css"></style></defs><path d="M62.8 549.3c0 107 36.4 205.4 97.2 283.8l18.5-14.3 20.5-15.9 20.9-16.2 19.7-15.2 16.9-13.1 269.6-209.1V86C270.3 86 62.8 293.4 62.8 549.3z" fill="#5B79FB" p-id="6899"></path><path d="M526.1 109.4v439.9l335.7-61.2 21-3.8 24.5-4.5 26-4.7 25.5-4.7c-37.1-205.2-216.7-361-432.7-361z" fill="#83A4FF" p-id="6900"></path><path d="M933.3 475.1l-26 4.7-24.5 4.5-21 3.8-335.7 61.2 214.4 265.4 13.4 16.6 15.6 19.4 16.6 20.6c93.8-75.9 153.8-191.9 153.8-321.9 0.2-25.4-2.3-50.2-6.6-74.3z" fill="#E5ECFF" p-id="6901"></path><path d="M754 831.3l-13.4-16.6-214.5-265.4-13.2 340.9-0.8 21.3-1 24.9c5 0.2 10 0.4 15 0.4 92.3 0 176.9-32.3 243.5-86.1L754 831.3z" fill="#FF7E71" p-id="6902"></path><path d="M256.5 758.4c24.6 31.7 54.7 59 88.9 80.4l180.8-289.4-269.7 209z" fill="#A4BEFF" p-id="6903"></path><path d="M345.4 838.7l-11.3 18.1c52 32.5 112.8 52.2 178 54.7l0.8-21.3 13.2-340.9-180.7 289.4z" fill="#E5ECFF" p-id="6904"></path></svg>