<?xml version="1.0" standalone="no"?><!DOCTYPE svg PUBLIC "-//W3C//DTD SVG 1.1//EN" "http://www.w3.org/Graphics/SVG/1.1/DTD/svg11.dtd"><svg t="1545481623197" class="icon" style="" viewBox="0 0 1024 1024" version="1.1" xmlns="http://www.w3.org/2000/svg" p-id="8098" xmlns:xlink="http://www.w3.org/1999/xlink" width="200" height="200"><defs><style type="text/css"></style></defs><path d="M930.909091 393.960727l-155.112727-42.286545 24.482909-89.832727 223.767272 61.044363v96.488727H1024V1024l-93.090909-23.272727v-2.094546L682.658909 930.909091l-341.317818 93.090909L0 930.909091V329.309091h-0.023273v-96.512l248.226909 67.723636-24.482909 89.809455L93.090909 354.676364v505.111272l209.454546 57.111273V581.818182h93.090909v330.891636l232.704-63.464727V558.545455h93.090909v286.440727L930.909091 902.120727V393.960727zM512 605.090909c-155.159273-162.56-232.727273-286.673455-232.727273-372.363636 0-128.535273 104.192-232.727273 232.727273-232.727273s232.727273 104.192 232.727273 232.727273c0 85.690182-77.568 209.803636-232.727273 372.363636z m0-325.818182a46.545455 46.545455 0 1 0 0-93.090909 46.545455 46.545455 0 0 0 0 93.090909z" fill="#333333" p-id="8099"></path></svg>